<svg id="Layer_2" data-name="Layer 2" xmlns="http://www.w3.org/2000/svg" viewBox="0 0 1920 1080">
  <defs>
    <style>.cls-1{fill:#fff;}</style>
  </defs>
  <title>icon-background-light</title>
  <path class="cls-1"
    d="M2173.34,350.84l-842.9-445c-33.3-17.58-73.34,6.56-73.34,44.22v890c0,37.66,40,61.8,73.34,44.22l842.9-445C2208.89,420.51,2208.89,369.61,2173.34,350.84Z"/>
  <path class="cls-1"
    d="M585.08,992.67,414.81,902.79A10.1,10.1,0,0,0,400,911.72v179.77a10.1,10.1,0,0,0,14.81,8.93l170.27-89.88A10.11,10.11,0,0,0,585.08,992.67Z"/>
  <path class="cls-1"
    d="M991.92,389.1l1.17-2.21L737.7,252.06A17.58,17.58,0,0,0,717.18,255a17.44,17.44,0,0,0-5.37,12.69V537.33A17.44,17.44,0,0,0,717.18,550a17.58,17.58,0,0,0,20.52,2.92L993.09,418.11a17.51,17.51,0,0,0,7.06-6.75,17.88,17.88,0,0,0,0-17.72,17.51,17.51,0,0,0-7.06-6.75l-1.17,2.21-1.16,2.21a12.54,12.54,0,0,1,5,4.83,12.81,12.81,0,0,1,0,12.72,12.54,12.54,0,0,1-5,4.83L735.36,548.52a12.57,12.57,0,0,1-5.89,1.48,12.77,12.77,0,0,1-8.82-3.59,12.41,12.41,0,0,1-3.84-9.08V267.67a12.41,12.41,0,0,1,3.84-9.08,12.77,12.77,0,0,1,8.82-3.59,12.57,12.57,0,0,1,5.89,1.48l255.4,134.83Z"/>
  <path class="cls-1"
    d="M312.69,627.67l1.17-2.21L-111.8,400.74a27.65,27.65,0,0,0-12.93-3.24,28,28,0,0,0-19.33,7.84,27.42,27.42,0,0,0-8.44,19.94V874.72a27.42,27.42,0,0,0,8.44,19.94,28,28,0,0,0,19.33,7.84,27.65,27.65,0,0,0,12.93-3.24L313.86,674.54A27.46,27.46,0,0,0,325,663.93a28.09,28.09,0,0,0,0-27.87,27.5,27.5,0,0,0-11.09-10.6l-1.17,2.21-1.16,2.21a22.5,22.5,0,0,1,9.09,8.68,23.11,23.11,0,0,1,0,22.88,22.5,22.5,0,0,1-9.09,8.68L-114.13,894.83a22.52,22.52,0,0,1-10.6,2.67,23,23,0,0,1-15.86-6.44,22.42,22.42,0,0,1-6.91-16.34V425.28a22.42,22.42,0,0,1,6.91-16.34,23,23,0,0,1,15.86-6.44,22.52,22.52,0,0,1,10.6,2.67L311.53,629.88Z"/>
  <path class="cls-1"
    d="M617.46,27.67,191.81-197a25.25,25.25,0,0,0-37,22.32V274.72a25.25,25.25,0,0,0,37,22.32L617.46,72.33A25.25,25.25,0,0,0,617.46,27.67Z"/>
</svg>