<?xml version="1.0" encoding="UTF-8"?>
<svg viewBox="222 216 306 320" xmlns="http://www.w3.org/2000/svg">
  <path fill="white"
    d="M478.86 347.11c-.0547-13.898-4.8477-27.367-13.594-38.172 2.9688-12.352 2.043-25.32-2.6484-37.129a8.2003 8.2003 0 00-5.1641-4.7344c-3.3164-1.1367-15.863-3.2695-41.438 13.309a123.688 123.688 0 00-33.719-4.0742 123.6843 123.6843 0 00-33.766 4.0742c-26.238-16.953-39.875-14.207-42.621-13.402h-.004a8.2794 8.2794 0 00-5.1601 4.8281 61.5604 61.5604 0 00-2.7461 37.035c-9.0312 10.75-13.844 24.418-13.547 38.453 0 52.379 29.98 68.199 57.445 73.785a44.376 44.376 0 00-2.8867 10.75 4.6169 4.6169 0 000 1.1836v14.492c-25.004 2.082-30.355-12.551-30.879-14.207a10.7484 10.7484 0 00-.4258-1.1367c-4.828-9.8555-13.332-17.422-23.68-21.074-4.3398-1.4531-9.039.8906-10.488 5.2344-1.453 4.3398.8906 9.0352 5.2305 10.488a25.0551 25.0551 0 0113.453 11.508c3.3164 10.75 16.859 27.75 46.695 25.859v13.641-.004c0 4.5782 3.707 8.2892 8.2852 8.2892s8.2891-3.711 8.2891-8.2891v-44.184c.629-4.8242 2.7266-9.3398 6.0156-12.93 2.3477-2.1992 3.2031-5.5664 2.1836-8.6211-1.0156-3.0547-3.7227-5.2344-6.9219-5.586-28.887-3.3632-55.598-12.883-55.598-59.527-.3867-11.387 4.0078-22.414 12.125-30.406a8.8085 8.8085 0 001.8945-8.8085c-2.793-8.1055-2.9727-16.883-.5234-25.098a71.9693 71.9693 0 0127.988 13.117c2.1523 1.4258 4.8398 1.789 7.293.9922 10.523-3.1992 21.492-4.6875 32.488-4.4023 10.98-.2852 21.934 1.1992 32.441 4.4023 2.453.8047 5.1406.4375 7.293-.9922a74.3557 74.3557 0 0126.805-13.023 41.902 41.902 0 01-.6172 25.336 8.1963 8.1963 0 001.6133 8.0508c7.8398 8.371 12.277 19.363 12.453 30.832 0 46.555-28.082 56.215-55.598 59.527-3.3711.375-6.168 2.7773-7.047 6.0547-.8788 3.2773.336 6.7539 3.0665 8.7695 2.9375 2.2266 6.3477 8.4766 6.3477 18.941v37.508c0 4.578 3.7109 8.289 8.289 8.289 4.5743 0 8.2853-3.7108 8.2853-8.289v-37.508a50.3702 50.3702 0 00-3.5508-19.273c22.258-4.7383 56.641-19.371 56.641-73.879z"/>
</svg>