<?xml version="1.0" encoding="UTF-8"?>
<svg xmlns="http://www.w3.org/2000/svg" id="Layer_1" data-name="Layer 1" viewBox="0 0 1053.08 196.1">
  <defs>
    <style>.cls-1{fill:#404040;}.cls-2{fill:#fff;}.cls-3{fill:#0096f0;}</style>
  </defs>
  <title>video-first-light</title>
  <path class="cls-2" d="M1048.08,181.68a52.77,52.77,0,0,1-15.75,6.82,72.61,72.61,0,0,1-19.22,2.61q-22.08,0-33.73-9.43t-11.9-30.26V36.85l42.16-11.65V64.63h37.2V97.32h-37.2V141.8q0,16.62,16.37,16.61a30.08,30.08,0,0,0,17.85-5.45Z" />
  <polygon class="cls-2" points="733.95 25.77 685.14 0 685.14 51.53 733.95 25.77" />
  <polygon class="cls-3" points="127.97 64.63 78.61 188.63 49.6 188.63 0 64.63 29.26 64.63 64.23 167.05 100.19 64.63 127.97 64.63" />
  <rect class="cls-3" x="140.36" y="64.63" width="26.54" height="124" />
  <path class="cls-3" d="M562.46,79.26q16.37,17.11,16.37,47.37T562.46,174q-16.37,17.12-45.38,17.12T471.69,174q-16.37-17.12-16.36-47.36t16.36-47.37q16.38-17.12,45.39-17.11T562.46,79.26Zm-71.3,15q-9.06,11.3-9.05,32.37T491.16,159q9.06,11.28,25.92,11.28t26-11.41q9.17-11.4,9.17-32.23t-9.17-32.25q-9.18-11.4-26-11.4T491.16,94.26Z" />
  <rect class="cls-2" x="685.14" y="64.63" width="42.16" height="124" />
  <path class="cls-3" d="M171.9,26.33a17.85,17.85,0,1,0-17.85,17.85A17.85,17.85,0,0,0,171.9,26.33Z" />
  <path class="cls-3" d="M276.35,11.06V82c-7-14.8-27.61-19.88-39.93-19.88q-25.54,0-40.3,17.23t-14.75,47.49q0,30.25,14.75,47.24t40.3,17c9.43,0,32.67-3.88,41.54-23.31l1.93,20.82h23V11.06Zm0,117.05q0,19.35-9.17,30.51t-24.8,11.16q-16.12,0-25.18-11.41t-9-31.74q0-20.34,9-31.62t25.18-11.29q15.62,0,24.8,11t9.17,30.38Z" />
  <path class="cls-3" d="M440.86,126.63q0-30.25-16.37-47.37T379.11,62.15q-29,0-45.39,17.11t-16.37,47.37q0,30.26,16.37,47.36t45.39,17.12q29,0,45.38-17.12a53.72,53.72,0,0,0,9.41-13.62l-24.63-8a35.35,35.35,0,0,1-4.12,6.52q-9.18,11.41-26,11.41T353.19,159c-4.39-5.47-7.14-12.7-8.33-21.63h95.39A105.42,105.42,0,0,0,440.86,126.63ZM379.11,83q16.86,0,26,11.4c4.43,5.52,7.23,12.7,8.45,21.51H344.83q1.8-13.4,8.36-21.63Q362.25,83,379.11,83Z" />
  <path class="cls-2" d="M633,56.58c0-6.91,4.28-11.27,9.84-13.81a26.2,26.2,0,0,1,21.48,0,19,19,0,0,1,6.37,4.56V14.92c-6.13-4.21-15.2-6.34-27.28-6.34q-22.32,0-36.21,11.16T593.3,53.22v135.4h42.16V97.32h35.21V64.63H633Z" />
  <path class="cls-2" d="M831.79,64.87q-5-2.72-13.39-2.72-14.13,0-23.69,7.56t-14,21.7L779,64.63h-37.2v124h42.16V128.29c0-19.67,16-32.38,41.56-28Z" />
  <path class="cls-2" d="M848.77,128.36Q837,118.94,837,103.31a34,34,0,0,1,6.7-20.08Q850.38,73.79,863.9,68t32.86-5.82c14.21,0,43.47,4.64,56.79,23.31l-21.83,21.32s-10.82-12-38.06-13c-7.21,0-15.15,1.25-15.26,6.64,0,4.9,8.71,8.23,23.56,10.62q27.28,4.71,39.31,14t12,25.42q0,18.1-15.13,29.39t-43.89,11.29c-36.8,0-60.52-21.83-60.52-21.83l21.83-23.81s15.08,12.79,34.1,14.65c15.43,1,20.83-2.46,21-7,0-7.09-14.1-8.21-22.36-9.87q-27.78-5.44-39.56-14.88" />
</svg>